<?xml version="1.0" standalone="no"?>
<!DOCTYPE svg PUBLIC "-//W3C//DTD SVG 20010904//EN"
 "http://www.w3.org/TR/2001/REC-SVG-20010904/DTD/svg10.dtd">
<svg version="1.0" xmlns="http://www.w3.org/2000/svg"
 width="552.000000pt" height="552.000000pt" viewBox="0 0 552.000000 552.000000"
 preserveAspectRatio="xMidYMid meet">
<metadata>
Created by potrace 1.14, written by Peter Selinger 2001-2017
</metadata>
<g transform="translate(0.000000,552.000000) scale(0.100000,-0.100000)"
fill="#000000" stroke="none">
<path d="M1418 4102 c-725 -724 -1318 -1322 -1318 -1327 0 -6 596 -606 1325
-1335 l1325 -1325 1325 1325 c729 729 1325 1329 1325 1334 0 16 -2634 2646
-2650 2646 -8 0 -608 -593 -1332 -1318z m2205 -80 c471 -471 857 -860 857
-864 0 -5 5 -8 11 -8 12 0 356 -337 371 -364 9 -16 -124 -152 -1043 -1073
-710 -709 -1060 -1053 -1072 -1051 -19 3 -2117 2096 -2117 2113 -1 17 2110
2114 2123 2109 7 -2 398 -390 870 -862z"/>
<path d="M2573 4105 c-5 -8 -128 -135 -273 -283 -146 -147 -338 -344 -427
-436 l-163 -169 0 -451 1 -451 439 -442 c241 -244 441 -443 444 -443 4 0 5
325 4 722 l-3 723 -142 0 -142 1 -3 -358 c-3 -359 -6 -388 -39 -372 -8 4 -71
66 -141 139 l-128 132 0 353 0 354 133 135 c127 131 174 164 174 124 -1 -10 0
-57 1 -104 l2 -86 143 1 142 1 3 463 c1 290 -1 462 -7 462 -6 0 -14 -7 -18
-15z"/>
<path d="M2900 3382 l0 -742 284 0 c156 0 291 -3 300 -6 13 -5 16 -25 16 -112
l0 -105 -132 -134 c-163 -165 -172 -167 -175 -43 l-1 85 -146 3 -146 3 0 -458
0 -458 103 105 c57 58 259 265 450 459 l347 355 0 438 0 437 -150 153 -149
153 -1 -312 c0 -298 -1 -313 -19 -323 -11 -5 -74 -10 -140 -10 -113 0 -121 1
-135 22 -14 20 -16 82 -16 483 l0 460 -145 145 -145 145 0 -743z"/>
<path d="M1376 2884 l-109 -115 104 -105 c57 -57 106 -109 107 -114 14 -41 20
21 20 220 0 127 -3 230 -6 230 -4 -1 -56 -53 -116 -116z"/>
<path d="M4000 2770 l0 -235 115 120 115 120 -115 115 -115 115 0 -235z"/>
</g>
</svg>
